<?xml version="1.0" standalone="no"?>
<!DOCTYPE svg PUBLIC "-//W3C//DTD SVG 20010904//EN"
 "http://www.w3.org/TR/2001/REC-SVG-20010904/DTD/svg10.dtd">
<svg version="1.0" xmlns="http://www.w3.org/2000/svg"
 width="474.000000pt" height="438.000000pt" viewBox="0 0 474.000000 438.000000"
 preserveAspectRatio="xMidYMid meet">

<g transform="translate(0.000000,438.000000) scale(0.100000,-0.100000)"
fill="#000000" stroke="none">
<path d="M2277 4119 c-20 -11 -48 -36 -61 -57 -85 -135 -1453 -2503 -1862
-3222 -161 -283 -164 -295 -105 -387 31 -48 38 -53 85 -62 33 -7 758 -11 2052
-13 l2001 -3 41 29 c70 48 101 117 82 184 -5 22 -177 327 -381 678 -204 352
-460 792 -569 979 -344 593 -521 897 -575 990 -29 50 -126 216 -215 370 -268
462 -291 498 -330 517 -47 23 -116 22 -163 -3z m116 -576 c30 -48 475 -814
882 -1518 172 -297 405 -701 519 -898 114 -197 210 -365 213 -373 4 -12 -226
-14 -1646 -14 l-1652 0 12 23 c6 12 85 148 174 302 89 154 370 640 624 1080
255 440 477 825 496 855 18 30 101 173 185 318 83 144 156 262 161 262 5 0 19
-17 32 -37z"/>
</g>
</svg>
